<svg height="64" viewBox="0 0 64 64" width="64" xmlns="http://www.w3.org/2000/svg"><path d="M62.87 16.842h-.058c-1.096.007-1.266-.945-1.285-1.387V8.542c0-.738-.598-1.336-1.334-1.336H40.428c-4.96 0-6.81 1.838-7.268 2.415l-.126.176V9.8l-.392.535c-.526.72-.983.414-1.203.178l-.75-.933-.37-.446c-.62-.653-2.242-1.928-5.455-1.928H3.808c-.738 0-1.336.598-1.336 1.336v6.825c0 1.195-.65 1.435-1.047 1.475H1.13c-.325.02-1.08.208-1.08 1.595v32.53c0 .797.648 1.443 1.446 1.443h19.218c6.13 0 8.803 2.312 9.604 3.2l.457.565s1.227 1.387 2.52 0l.267-.314v.002l.004-.003.342-.4c.01-.013.092-.105.21-.227 1.024-.995 3.58-2.823 8.58-2.823h19.806c.8 0 1.445-.646 1.445-1.444V18.122c0-1.176-.852-1.274-1.08-1.28zm-4.32 29.02c0 .64-.534 1.158-1.2 1.158H41.055c-5.8 0-7.904 2.62-7.904 2.62l-.266.358-.125.173h-.002c-.553.752-1.366.007-1.37.003l-.375-.47c-.278-.333-2.408-2.684-7.563-2.684H6.65c-.663 0-1.2-.52-1.2-1.16V11.2c0-.64.537-1.16 1.2-1.16h13.043c9.702 0 10.62 5.512 10.684 7.113V41.26c0 1.75.835 2.08 1.306 2.128h.7c.48-.048 1.244-.333 1.244-1.7V16.842h-.008c.07-2.005.853-6.802 6.688-6.802H57.35c.666 0 1.2.518 1.2 1.158v34.664z" fill="#AEB993"/></svg>