<svg width="16" height="16" viewBox="0 0 16 16" xmlns="http://www.w3.org/2000/svg"><title>small icons/discussion</title><path d="M6.377 2C3.445 2 1 4.032 1 6.606c0 1.316.715 2.464 1.73 3.302-.08.532-.295.93-.52 1.22-.128.163-.243.3-.353.422-.055.06-.107.12-.168.22-.032.05-.08.107-.102.22-.022.114.008.3.1.44l.068.12.134.067c.47.237.98.195 1.445.068.467-.128.915-.348 1.345-.576.43-.23.837-.47 1.16-.645.044-.024.073-.03.116-.05.85 1.174 2.4 1.964 4.134 1.964h.05c.7 0 2.957 2.325 4.3 1.404.055-.216-1.18-.758-1.242-2.37 1.052-.75 1.73-1.864 1.73-3.1 0-1.826-1.438-3.336-3.36-3.877C10.96 3.443 8.848 2 6.378 2zm0 1.084c2.444 0 4.3 1.653 4.3 3.522 0 1.87-1.856 3.522-4.3 3.522-.437 0-.687.18-1.042.372-.355.193-.762.432-1.16.644-.343.183-.672.324-.974.423.295-.428.602-.99.656-1.778l.017-.306-.252-.186c-.957-.676-1.545-1.65-1.545-2.692 0-1.87 1.857-3.522 4.302-3.522z" fill="#51C0BF" fill-rule="evenodd"/></svg>