<svg width="41" height="41" viewBox="0 0 41 41" xmlns="http://www.w3.org/2000/svg"><title>editing icons/download file</title><g fill="none" fill-rule="evenodd"><circle fill="#5CA0D7" cx="20.5" cy="20.5" r="20.5"/><path d="M19.038 11c-1.242 0-2.192.95-2.192 2.192v5.846h-2.42c-1.024 0-1.17.15-.366 1.028l4.84 4.82c1.61 1.606 1.59 1.606 3.2 0l4.84-4.75c.877-.95.585-1.098-.365-1.098h-2.42v-5.846c0-1.242-.95-2.192-2.193-2.192h-2.924zM11 24.885v2.923C11 29.05 11.95 30 13.192 30h14.616C29.05 30 30 29.05 30 27.808v-2.923h-1.462v2.923c0 .438-.292.73-.73.73H13.192c-.438 0-.73-.292-.73-.73v-2.923H11z" fill="#FFF"/></g></svg>